<svg xmlns="http://www.w3.org/2000/svg" width="1878.293" height="746.88" viewBox="0 0 1878.293 746.88">
  <g id="Group_6824" data-name="Group 6824" transform="translate(1876.881 745.517) rotate(180)">
    <g id="Group_6820" data-name="Group 6820">
      <path id="Path_8565" data-name="Path 8565" d="M1703.123,443.435c-171.579-134.812-239.431,64.011-229.487,255.385,5.832,112.243-115.031,174.243-211.716-155.98-58.537-199.935-133.025-310.041-257.981-322.732C802.819,199.683,832.612,872.694,561.3,841.94,271.255,809.062,419.56,290.716,79.188,98.439" transform="translate(150.595 -98.439)" fill="none" stroke="#495657" stroke-linecap="round" stroke-linejoin="round" stroke-width="2" stroke-dasharray="0.01 7"/>
      <path id="Path_8566" data-name="Path 8566" d="M1712.39,440.792c-174.408-123.878-241.118,57.963-236.875,240.562,2.429,107.084-117.963,170.552-214.549-140.06-58.9-187.258-130.449-304.4-258-313.444C799.368,213.411,827.809,834.8,560.306,812.13,273.554,788.687,408.73,293.391,78.777,106.149" transform="translate(142.168 -90.4)" fill="none" stroke="#495657" stroke-linecap="round" stroke-linejoin="round" stroke-width="2" stroke-dasharray="0.01 7" opacity="0.965"/>
      <path id="Path_8567" data-name="Path 8567" d="M1721.656,438.148c-177.235-112.942-242.8,51.913-244.261,225.739-.974,101.922-119.866,166.518-217.381-124.137-58.643-174.792-127.857-298.787-258.028-304.161-206.038-8.505-178.935,560.545-442.678,546.733C275.9,767.478,397.9,296.068,78.367,113.859" transform="translate(133.739 -82.362)" fill="none" stroke="#495657" stroke-linecap="round" stroke-linejoin="round" stroke-width="2" stroke-dasharray="0.01 7" opacity="0.931"/>
      <path id="Path_8568" data-name="Path 8568" d="M1730.919,435.5c-180.064-102.006-244.486,45.863-251.647,210.918-4.377,96.76-122.258,162.606-220.214-108.219-58.684-162.248-125.245-293.2-258.051-294.875-208.458-2.623-182.775,514.56-442.7,509.183-280.13-5.793-171.238-453.768-480.348-630.941" transform="translate(125.313 -74.323)" fill="none" stroke="#495657" stroke-linecap="round" stroke-linejoin="round" stroke-width="2" stroke-dasharray="0.01 7" opacity="0.896"/>
      <path id="Path_8569" data-name="Path 8569" d="M1740.185,432.859c-182.891-91.07-246.171,39.815-259.033,196.094-7.78,91.6-124.634,158.653-223.047-92.3-58.719-149.731-122.622-287.646-258.073-285.587-210.861,3.2-186.637,468.6-442.725,471.634C280.431,725.983,376.238,301.417,77.547,129.28" transform="translate(116.885 -66.284)" fill="none" stroke="#495657" stroke-linecap="round" stroke-linejoin="round" stroke-width="2" stroke-dasharray="0.01 7" opacity="0.862"/>
      <path id="Path_8570" data-name="Path 8570" d="M1749.452,430.215c-185.72-80.136-247.858,33.764-266.422,181.271-11.183,86.439-126.991,154.65-225.88-76.379C1198.4,397.86,1137.162,252.986,999.057,258.8,785.8,267.79,808.533,681.474,556.305,692.89c-273.644,12.386-190.9-388.8-479.169-555.9" transform="translate(108.458 -58.245)" fill="none" stroke="#495657" stroke-linecap="round" stroke-linejoin="round" stroke-width="2" stroke-dasharray="0.01 7" opacity="0.827"/>
      <path id="Path_8571" data-name="Path 8571" d="M1758.718,427.571c-188.549-69.2-249.235,27.769-273.808,166.45C1470.5,675.329,1355.579,744.6,1256.2,533.56c-58.774-124.805-117.352-276.624-258.116-267.016C782.449,281.263,803.654,643.315,555.307,663.081,284.87,684.606,354.578,306.767,76.726,144.7" transform="translate(100.029 -50.207)" fill="none" stroke="#495657" stroke-linecap="round" stroke-linejoin="round" stroke-width="2" stroke-dasharray="0.01 7" opacity="0.792"/>
      <path id="Path_8572" data-name="Path 8572" d="M1767.982,424.927c-191.376-58.263-250.871,21.748-281.194,151.627-17.781,76.165-131.664,146.418-231.546-44.541C1196.441,419.6,1140.533,260.858,997.1,274.284,779.1,294.69,798.754,605.191,554.307,633.271c-267.249,30.7-210.56-323.829-477.991-480.861" transform="translate(91.603 -42.168)" fill="none" stroke="#495657" stroke-linecap="round" stroke-linejoin="round" stroke-width="2" stroke-dasharray="0.01 7" opacity="0.758"/>
      <path id="Path_8573" data-name="Path 8573" d="M1777.249,422.282c-194.205-47.327-252.513,15.734-288.58,136.8-21.159,71.026-134,142.151-234.381-28.619-58.835-100.094-112.064-265.713-258.161-248.444C775.75,308.071,793.845,567.1,553.305,603.461c-264.073,39.913-220.389-291.345-477.4-443.34" transform="translate(83.175 -34.129)" fill="none" stroke="#495657" stroke-linecap="round" stroke-linejoin="round" stroke-width="2" stroke-dasharray="0.01 7" opacity="0.723"/>
      <path id="Path_8574" data-name="Path 8574" d="M1786.514,419.638c-197.034-36.393-254.16,9.727-295.966,121.982-24.54,65.888-136.356,137.745-237.214-12.7-58.9-87.857-109.42-260.3-258.184-239.157C772.4,321.415,788.927,529.06,552.307,573.65,291.4,622.82,322.087,314.793,75.495,167.831" transform="translate(74.747 -26.09)" fill="none" stroke="#495657" stroke-linecap="round" stroke-linejoin="round" stroke-width="2" stroke-dasharray="0.01 7" opacity="0.688"/>
      <path id="Path_8575" data-name="Path 8575" d="M1795.778,416.994c-199.861-25.457-255.814,3.73-303.352,107.159-27.927,60.759-138.781,133.174-240.047,3.219C1193.37,451.646,1145.6,272.467,994.173,297.5,769.049,334.719,784,491.057,551.307,543.842c-257.755,58.468-240.051-226.374-476.222-368.3" transform="translate(66.321 -18.052)" fill="none" stroke="#495657" stroke-linecap="round" stroke-linejoin="round" stroke-width="2" stroke-dasharray="0.01 7" opacity="0.654"/>
      <path id="Path_8576" data-name="Path 8576" d="M1805.044,414.35c-202.688-14.521-257.481-2.263-310.738,92.336-31.319,55.633-141.344,128.409-242.88,19.139C1192.212,462.1,1147.285,276.288,993.2,305.24,765.691,347.989,779.077,453.1,550.307,514.031c-254.6,67.815-249.881-193.888-475.632-330.78" transform="translate(57.892 -10.013)" fill="none" stroke="#495657" stroke-linecap="round" stroke-linejoin="round" stroke-width="2" stroke-dasharray="0.01 7" opacity="0.619"/>
      <path id="Path_8577" data-name="Path 8577" d="M1814.311,411.7c-205.519-3.585-259.166-8.252-318.126,77.515-34.72,50.505-144.165,123.443-245.714,35.057-59.581-51.858-101.505-244.192-258.249-211.3-229.9,48.244-218.069,102.2-442.915,171.242C297.868,561.428,289.6,322.816,74.264,190.962" transform="translate(49.465 -1.974)" fill="none" stroke="#495657" stroke-linecap="round" stroke-linejoin="round" stroke-width="2" stroke-dasharray="0.01 7" opacity="0.585"/>
      <path id="Path_8578" data-name="Path 8578" d="M1823.575,409.061c-208.346,7.349-260.868-14.241-325.512,62.692-38.134,45.383-147.407,118.351-248.547,50.977-60.2-40.1-98.879-238.869-258.271-202.012C758.951,374.43,769.24,377.3,548.305,454.411,300.036,541.06,278.765,325.491,73.854,198.672" transform="translate(41.039 6.065)" fill="none" stroke="#495657" stroke-linecap="round" stroke-linejoin="round" stroke-width="2" stroke-dasharray="0.01 7" opacity="0.55"/>
      <path id="Path_8579" data-name="Path 8579" d="M1832.84,406.417c-211.175,18.285-262.586-20.236-332.9,47.869-41.557,40.254-151.245,113.32-251.38,66.9-61.186-28.366-96.26-233.564-258.294-192.726C755.567,387.61,764.342,339.47,547.307,424.6,302.22,520.735,267.933,328.166,73.444,206.382" transform="translate(32.61 14.103)" fill="none" stroke="#495657" stroke-linecap="round" stroke-linejoin="round" stroke-width="2" stroke-dasharray="0.01 7" opacity="0.515"/>
      <path id="Path_8580" data-name="Path 8580" d="M1842.106,403.773c-214,29.222-264.322-26.243-340.284,33.047-44.989,35.117-155.749,108.687-254.213,82.818-62.571-16.441-93.647-228.28-258.316-183.44-237.12,64.567-229.832-34.522-442.985,58.594-241.881,105.666-289.2-63.948-473.274-180.7" transform="translate(24.182 22.142)" fill="none" stroke="#495657" stroke-linecap="round" stroke-linejoin="round" stroke-width="2" stroke-dasharray="0.01 7" opacity="0.481"/>
      <path id="Path_8581" data-name="Path 8581" d="M1851.373,401.128c-216.831,40.158-266.074-32.269-347.672,18.224-48.43,29.969-161.648,84.047-257.046,98.738-63.625,9.8-91.043-223.01-258.337-174.155C748.765,413.892,754.6,263.918,545.307,364.982,306.657,480.22,246.273,333.517,72.623,221.8" transform="translate(15.755 30.181)" fill="none" stroke="#495657" stroke-linecap="round" stroke-linejoin="round" stroke-width="2" stroke-dasharray="0.01 7" opacity="0.446"/>
      <path id="Path_8582" data-name="Path 8582" d="M1860.637,398.484c-219.66,51.092-267.829-38.317-355.056,3.4C1453.7,426.7,1339.9,503.77,1245.7,516.542c-65.913,8.936-88.449-217.758-258.359-164.869-242,75.329-237.572-125.479-443.034-16.5-235.39,124.852-308.865,1.021-472.094-105.658" transform="translate(7.328 38.22)" fill="none" stroke="#495657" stroke-linecap="round" stroke-linejoin="round" stroke-width="2" stroke-dasharray="0.01 7" opacity="0.412"/>
      <path id="Path_8583" data-name="Path 8583" d="M1869.9,395.84c-222.487,62.028-269.583-44.386-362.443-11.42-55.322,19.638-170.137,99.628-262.712,130.576-67.241,22.479-85.865-212.519-258.384-155.581-244.453,80.679-241.4-170.915-443.058-54.052-232.093,134.5-318.694,33.5-471.5-68.139" transform="translate(-1.1 46.258)" fill="none" stroke="#495657" stroke-linecap="round" stroke-linejoin="round" stroke-width="2" stroke-dasharray="0.01 7" opacity="0.377"/>
      <path id="Path_8584" data-name="Path 8584" d="M1879.169,393.2c-225.314,72.964-271.332-50.473-369.829-26.243-58.762,14.456-173.891,97.635-265.545,146.5-68.07,36.287-83.289-207.294-258.406-146.3C738.468,453.165,740.2,150.83,542.308,275.552,313.546,419.733,213.783,341.542,71.393,244.933" transform="translate(-9.529 54.297)" fill="none" stroke="#495657" stroke-linecap="round" stroke-linejoin="round" stroke-width="2" stroke-dasharray="0.01 7" opacity="0.342"/>
      <path id="Path_8585" data-name="Path 8585" d="M1888.433,409.461c-228.145,83.9-273.072-56.576-377.217-41.067-62.2,9.263-177.017,95.559-268.378,162.416-68.456,50.095-80.722-202.083-258.429-137.008-249.4,91.329-248.953-261.709-443.1-129.15-225.392,153.888-338.356,98.474-470.325,6.9" transform="translate(-17.954 43.426)" fill="none" stroke="#495657" stroke-linecap="round" stroke-linejoin="round" stroke-width="2" stroke-dasharray="0.01 7" opacity="0.308"/>
      <path id="Path_8586" data-name="Path 8586" d="M1897.7,425.879c-230.972,94.834-274.8-62.688-384.6-55.888-65.621,4.063-179.709,93.235-271.211,178.336-68.546,63.748-78.167-196.885-258.451-127.724-251.9,96.634-252.679-307.078-443.128-166.7C318.332,417.523,192.121,384.865,70.572,298.326" transform="translate(-26.382 32.402)" fill="none" stroke="#495657" stroke-linecap="round" stroke-linejoin="round" stroke-width="2" stroke-dasharray="0.01 7" opacity="0.273"/>
      <path id="Path_8587" data-name="Path 8587" d="M1906.965,442.4c-233.8,105.77-276.506-68.805-391.989-70.711-69.04-1.138-182.148,90.635-274.045,194.256-68.476,77.213-75.619-191.695-258.472-118.439C728.051,549.43,726.09,95.072,539.308,243.259,320.79,416.624,181.292,406.7,70.162,325.2" transform="translate(-34.811 21.277)" fill="none" stroke="#495657" stroke-linecap="round" stroke-linejoin="round" stroke-width="2" stroke-dasharray="0.01 7" opacity="0.238"/>
      <path id="Path_8588" data-name="Path 8588" d="M1916.231,458.995C1679.6,575.7,1638.044,383.866,1516.856,373.461c-72.439-6.463-184.462,87.789-276.878,210.176-68.34,90.5-73.08-186.515-258.494-109.151C724.555,581.688,721.463,76.7,538.31,232.688,323.293,415.814,170.463,428.619,69.752,352.15" transform="translate(-43.239 10.076)" fill="none" stroke="#495657" stroke-linecap="round" stroke-linejoin="round" stroke-width="2" stroke-dasharray="0.01 7" opacity="0.204"/>
      <path id="Path_8589" data-name="Path 8589" d="M1925.5,475.645c-239.457,127.643-279.872-81.179-406.763-100.355-75.842-11.625-186.725,84.748-279.711,226.094-68.186,103.65-70.552-181.345-258.516-99.865C721.041,613.991,716.866,58.391,537.307,222.174,325.833,415.066,159.63,450.589,69.341,379.156" transform="translate(-51.664 -1.18)" fill="none" stroke="#495657" stroke-linecap="round" stroke-linejoin="round" stroke-width="2" stroke-dasharray="0.01 7" opacity="0.169"/>
      <path id="Path_8590" data-name="Path 8590" d="M1934.762,492.3c-242.284,138.577-281.557-87.23-414.147-115.179-79.247-16.786-188.982,81.557-282.546,242.014-68.043,116.69-68.119-176.373-258.539-90.579C717.4,646.03,712.585,40.372,536.308,211.665c-207.562,203-387.509,260.9-467.377,194.5" transform="translate(-60.092 -12.443)" fill="none" stroke="#495657" stroke-linecap="round" stroke-linejoin="round" stroke-width="2" stroke-dasharray="0.01 7" opacity="0.135"/>
      <path id="Path_8591" data-name="Path 8591" d="M1944.028,509.067c-245.113,149.513-283.242-93.278-421.533-130-82.65-21.946-191.249,78.256-285.379,257.934-67.919,129.646-65.523-171.028-258.562-81.292C713.985,678.694,707.784,21.889,535.308,201.265,331.047,413.7,137.97,494.649,68.521,433.287" transform="translate(-68.521 -23.813)" fill="none" stroke="#495657" stroke-linecap="round" stroke-linejoin="round" stroke-width="2" stroke-dasharray="0.01 7" opacity="0.1"/>
    </g>
  </g>
</svg>
