<svg xmlns="http://www.w3.org/2000/svg" width="1366" height="768" viewBox="0 0 1366 768">
  <g id="Group_6831" data-name="Group 6831" transform="translate(0 -1536)">
    <path id="Path_8513" data-name="Path 8513" d="M0-107,1366,0V661L0,501Z" transform="translate(0 1643)" fill="#26292f"/>
    <path id="Path_8514" data-name="Path 8514" d="M231.73,225.011c-.178-10.967-6.108-23.3-8.993-32.9q-7.937-26.379-15.856-52.758-12.428-41.4-24.929-82.81c-2.4-7.986-4.3-16.069-8.346-23.5-6.613-12.138-15.412-21.96-28.3-27.506C130.239-.9,114.632-1.434,99,2.435,76.918,7.892,61.577,20.864,54.679,43.25q-15.233,49.315-30.627,98.6l-12.918,41.41c-3.126,10.018-6.765,19.893-9.714,29.964-1.864,6.38-2.236,13.167,1,19.148,9.5,17.568,34.961,17.746,47.4,3.549,7.707-8.811,9.624-20.328,13.079-31.117,2.228-6.947,4.358-13.939,6.587-20.9q15.756-49.156,31.532-98.293,3.555-11.064,7.1-22.111a14.085,14.085,0,0,1,2.414-4.587,7.807,7.807,0,0,1,13.052,1.207,29.258,29.258,0,0,1,1.945,5.04c0,3.744,2.909,9.015,4.073,12.608q2.113,6.575,4.244,13.141l8.5,26.273q8.5,26.273,16.976,52.545,5.776,17.87,11.539,35.74c5.113,15.838,9.766,34.782,27.638,40.451,12.223,3.869,28.5-.142,32.368-13.717A24.583,24.583,0,0,0,231.73,225.011Z" transform="translate(347.316 1812.235) rotate(90)" fill="none" stroke="#2d3139" stroke-width="2"/>
    <path id="Path_8515" data-name="Path 8515" d="M52.113,0H7.582A7.411,7.411,0,0,0,0,7.517V73.7C0,87.24,11.632,98.269,25.8,98.269c14.672,0,26.312-11.029,26.312-24.569V59.157c0-7.018,4.049-10.026,9.615-10.026,85.005,7.986,93.6,129.357,5.567,144.894H25.8C11.595,194.025,0,207.068,0,220.6s11.631,24.569,25.8,24.569H54.644C222.622,242.16,223.634,0,52.113,0Z" transform="translate(346.825 1990.65) rotate(90)" fill="none" stroke="#2d3139" stroke-width="2"/>
    <path id="Path_8516" data-name="Path 8516" d="M106.037,0c-14.2,0-26.314,11.535-26.314,25.572V142.888q0,21.055-15.181,36.095c-10.654,10.035-22.266,15.084-36.932,15.084H25.585a25.569,25.569,0,1,0,0,51.139l5.567,0c27.318-1,50.6-10.523,70.331-30.079q30.353-29.334,30.353-72.2V25.572A25.792,25.792,0,0,0,106.037,0Z" transform="translate(345.795 1732.558) rotate(90)" fill="none" stroke="#2d3139" stroke-width="2"/>
    <path id="Path_8517" data-name="Path 8517" d="M231.712,225c-.178-10.967-6.117-23.291-9-32.9q-7.866-26.379-15.856-52.749Q194.426,97.933,182,56.533c-2.4-7.986-4.288-16.069-8.345-23.5-6.614-12.129-15.412-21.96-28.3-27.506C130.283-.893,114.631-1.434,99,2.426,76.918,7.883,61.586,20.855,54.679,43.241q-15.234,49.333-30.629,98.64-6.445,20.691-12.908,41.41c-3.152,9.982-6.774,19.893-9.721,29.928-1.864,6.371-2.237,13.158.994,19.148,9.5,17.568,34.97,17.746,47.4,3.549,7.715-8.775,9.668-20.31,13.086-31.09,2.228-6.956,4.35-13.939,6.578-20.9q15.749-49.164,31.534-98.3,3.551-11.047,7.1-22.111a14.123,14.123,0,0,1,2.415-4.587,7.806,7.806,0,0,1,13.05,1.207,27.661,27.661,0,0,1,1.944,5.04c0,3.753,2.912,9.024,4.075,12.617q2.131,6.557,4.253,13.132,4.244,13.132,8.487,26.273,8.5,26.272,16.983,52.554l11.541,35.731c5.114,15.847,9.766,34.79,27.637,40.46,12.225,3.869,28.5-.151,32.369-13.717a24.991,24.991,0,0,0,.843-7.223Z" transform="translate(347.908 1551.251) rotate(90)" fill="none" stroke="#2d3139" stroke-width="2"/>
  </g>
</svg>
